<?xml version="1.0" encoding="UTF-8" standalone="no"?>
<svg
   clip-rule="evenodd"
   fill-rule="evenodd"
   stroke-linejoin="round"
   stroke-miterlimit="2"
   viewBox="0 0 24 24"
   version="1.1"
   id="svg4"
   sodipodi:docname="pencil-line.svg"
   inkscape:version="1.2.2 (b0a8486541, 2022-12-01)"
   xmlns:inkscape="http://www.inkscape.org/namespaces/inkscape"
   xmlns:sodipodi="http://sodipodi.sourceforge.net/DTD/sodipodi-0.dtd"
   xmlns="http://www.w3.org/2000/svg"
   xmlns:svg="http://www.w3.org/2000/svg">
  <defs
     id="defs8" />
  <sodipodi:namedview
     id="namedview6"
     pagecolor="#ffffff"
     bordercolor="#000000"
     borderopacity="0.25"
     inkscape:showpageshadow="2"
     inkscape:pageopacity="0.0"
     inkscape:pagecheckerboard="0"
     inkscape:deskcolor="#d1d1d1"
     showgrid="false"
     inkscape:zoom="9.8333333"
     inkscape:cx="11.898305"
     inkscape:cy="12"
     inkscape:window-width="1920"
     inkscape:window-height="1131"
     inkscape:window-x="0"
     inkscape:window-y="0"
     inkscape:window-maximized="1"
     inkscape:current-layer="svg4" />
  <path
     d="m 20.898305,22.487288 c 0,-0.511017 -0.452542,-0.95339 -0.95339,-0.95339 -3.255508,0 -15.1766947,0 -18.4322031,0 -0.5008475,0 -0.95338987,0.442373 -0.95338987,0.95339 0,0.511017 0.45254237,0.95339 0.95338987,0.95339 H 19.944915 c 0.500848,0 0.95339,-0.442373 0.95339,-0.95339 z M 11.487712,18.167797 23.086017,6.5682203 c 0.217373,-0.2173728 0.354661,-0.5377118 0.354661,-0.8694915 0,-0.2911017 -0.105509,-0.5923729 -0.355932,-0.8415254 L 19.125,0.91144068 C 18.889831,0.67627119 18.579661,0.55932203 18.270763,0.55932203 c -0.308899,0 -0.617797,0.11694916 -0.854238,0.35211865 L 5.7940678,12.483051 c -0.7233051,2.241102 -1.9766949,6.130932 -2.0669492,6.458898 -0.025424,0.09534 -0.036864,0.190678 -0.036864,0.284746 0,0.586017 0.4436441,1.077966 0.9724577,1.077966 0.6495762,0 1.2597457,-0.240254 6.8249997,-2.136864 z m -4.1567798,-4.248305 2.7165258,2.716525 -4.027119,1.329661 z m 1.2139831,-1.482204 9.7258477,-9.6813558 2.96822,2.9580509 -9.708051,9.7093219 z"
     fill-rule="nonzero"
     id="path2"
     style="stroke-width:1.271;stroke-dasharray:none;stroke:none;stroke-opacity:1;fill:#676b80;fill-opacity:1" />
</svg>
