<?xml version="1.0" encoding="UTF-8" standalone="no"?>
<svg
   clip-rule="evenodd"
   fill-rule="evenodd"
   stroke-linejoin="round"
   stroke-miterlimit="2"
   viewBox="0 0 100 24"
   version="1.1"
   id="svg3617"
   sodipodi:docname="star-bg.svg"
   inkscape:version="1.2.2 (b0a8486541, 2022-12-01)"
   width="100"
   height="24"
   xmlns:inkscape="http://www.inkscape.org/namespaces/inkscape"
   xmlns:sodipodi="http://sodipodi.sourceforge.net/DTD/sodipodi-0.dtd"
   xmlns="http://www.w3.org/2000/svg"
   xmlns:svg="http://www.w3.org/2000/svg">
  <defs
     id="defs3621" />
  <sodipodi:namedview
     id="namedview3619"
     pagecolor="#1f2336"
     bordercolor="#000000"
     borderopacity="0.25"
     inkscape:showpageshadow="2"
     inkscape:pageopacity="0.10588235"
     inkscape:pagecheckerboard="0"
     inkscape:deskcolor="#d1d1d1"
     showgrid="false"
     inkscape:zoom="16"
     inkscape:cx="41.59375"
     inkscape:cy="14.9375"
     inkscape:window-width="1920"
     inkscape:window-height="1131"
     inkscape:window-x="0"
     inkscape:window-y="0"
     inkscape:window-maximized="1"
     inkscape:current-layer="g5504" />
  <g
     id="g5116"
     style="opacity:1">
    <g
       inkscape:groupmode="layer"
       id="layer1"
       inkscape:label="Layer 1">
      <path
         style="opacity:0.05;fill:#ffffff;fill-opacity:1;stroke:none;stroke-width:0.05;stroke-dasharray:none;stroke-opacity:1"
         id="path11007"
         d="m -0.70119865,13.342504 c 0.31775997,-0.01809 0.63854676,-0.0069 0.95327991,-0.05428 0.47285023,-0.07113 0.93868414,-0.18491 1.40275904,-0.300157 1.0931709,-0.271476 2.3726172,-0.680012 3.4428233,-1.00391 0.6277996,-0.190004 1.2439399,-0.424865 1.8841902,-0.56739 0.859971,-0.191436 1.7382931,-0.288322 2.6074396,-0.432483 2.4666596,-0.464457 4.8385956,-1.2726201 7.1726056,-2.175773 0.525037,-0.2031649 1.039551,-0.433388 1.567735,-0.6282258 0.44582,-0.1644551 0.903233,-0.2956727 1.352946,-0.4491619 0.361633,-0.123427 0.720659,-0.2543669 1.080988,-0.3815504 1.092909,-0.3295158 2.164626,-0.7552918 3.283219,-0.996191 0.304295,-0.065533 0.613201,-0.1074448 0.919801,-0.1611671 0.351463,-0.077715 0.702926,-0.1554302 1.054389,-0.2331453 1.077566,-0.2959348 2.16287,-0.5623096 3.241089,-0.8557973 0.322299,-0.087729 1.515347,-0.4314388 1.891048,-0.5086665 0.273808,-0.056283 0.552793,-0.083504 0.829189,-0.1252557 0.700945,-0.1032635 0.9594,-0.156631 1.654628,-0.2016878 0.252213,-0.016346 0.506587,0.00218 0.757792,-0.025658 0.166105,-0.018407 -0.668443,6.705e-4 -0.501356,-0.00276 0.798276,-0.016384 0.681966,-0.00638 1.476364,0.050631 0.575186,0.08724 1.180305,0.1651629 1.743163,0.31315 0.389971,0.1025315 0.766619,0.2512057 1.155116,0.3591891 0.768887,0.2137139 2.181256,0.5408577 2.947236,0.6859453 0.530573,0.1004983 1.065848,0.1743541 1.598772,0.2615312 1.465338,0.2217731 2.928176,0.4640998 4.395758,0.6709817 0.114888,0.016196 2.270148,0.2910508 2.454728,0.3230205 0.37487,0.064928 0.744031,0.1593474 1.116046,0.239021 0.383078,0.1020189 0.766156,0.2040377 1.149234,0.3060565 0.392753,0.096571 0.786891,0.1876764 1.17826,0.2897121 1.516665,0.3954167 0.87556,0.2754534 2.391644,0.6206358 0.870734,0.1982489 1.412683,0.2933031 2.285445,0.4591871 0.337424,0.054783 0.674728,0.1103178 1.012273,0.164349 0.680736,0.1089661 1.083394,0.1587251 1.751682,0.3049306 0.813228,0.1779152 1.60758,0.4292557 2.401843,0.6753385 1.387544,0.4101594 2.613565,1.1919194 3.953891,1.7182654 1.225944,0.481428 1.553119,0.534525 2.833883,0.887406 1.371887,0.351642 2.779197,0.472711 4.184064,0.596599 0.444464,0.0392 0.887692,0.0943 1.333068,0.121224 0.842389,0.05092 1.704673,0.03899 2.548232,0.03913 1.190162,-0.02263 2.379399,-0.08148 3.569533,-0.104085 0.742977,-0.01411 1.486237,0.0182 2.229308,0.01047 1.009029,-0.0105 1.1842,-0.03271 2.193295,-0.0912 0.363161,-0.03389 0.726904,-0.06204 1.089484,-0.101674 0.936954,-0.102424 1.197481,-0.133874 2.111628,-0.35981 1.061831,-0.262435 0.770436,-0.237203 1.770889,-0.532408 0.254466,-0.07509 0.512819,-0.136308 0.769229,-0.204462 0.259172,-0.04154 0.518292,-0.08341 0.777516,-0.124629 0.549127,-0.08731 1.030964,-0.155396 1.575435,-0.267837 2.449653,-0.505887 -0.904003,0.154586 1.381048,-0.328801 0.214347,-0.04534 0.431384,-0.07687 0.647076,-0.115312 0.951215,-0.181732 1.920233,-0.217245 2.882047,-0.303361 0.532024,-0.04763 1.062194,-0.114157 1.593603,-0.168269 0.83487,-0.08105 1.65213,-0.267446 2.47491,-0.419197 0.28011,-0.05166 0.56489,-0.07818 0.84301,-0.139639 0.20871,-0.04612 1.31203,-0.3678592 1.56632,-0.4412967 0.73596,-0.1891123 1.44665,-0.4557865 2.16201,-0.7081814 0.14631,-0.051625 0.28921,-0.1154223 0.4401,-0.1515957 0.1461,-0.035027 0.29771,-0.040653 0.44657,-0.06098 0.14998,-0.00351 0.30089,0.00658 0.44993,-0.010519 0.78779,-0.090385 1.62813,-0.3424486 2.31859,-0.7307534 0.34185,-0.2032368 0.66157,-0.4326384 0.96065,-0.6938368 0.20613,-0.1981293 -2.59584,-3.1132391 -2.80197,-2.9151098 v 0 c -0.18249,-0.00956 0.17245,-0.1260715 -0.13325,-0.1061834 -0.93672,-0.020193 -1.87397,0.1533718 -2.76343,0.4396282 -0.16837,0.058485 -0.33369,0.1266638 -0.50513,0.1754558 -0.86794,0.2470147 -1.80196,0.1651222 -2.67018,0.4173376 -0.23968,0.046079 -0.47937,0.092159 -0.71906,0.1382384 -0.2244,0.040424 -0.44916,0.078821 -0.67318,0.121271 -0.24685,0.046776 -0.49103,0.1083942 -0.73938,0.1463962 -0.77172,0.1180859 -1.558558,0.1447689 -2.326049,0.2975409 -0.539642,0.066329 -1.081329,0.1166452 -1.619682,0.1927258 -0.996796,0.140868 -1.971249,0.4005785 -2.968217,0.5401741 -0.22555,0.033102 -0.450323,0.072014 -0.67665,0.099306 -0.787524,0.094966 -0.657812,0.03748 -1.478975,0.1503619 -0.878575,0.1207736 -1.744597,0.3176936 -2.594912,0.5682545 -0.254337,0.058075 -0.506754,0.1253138 -0.763011,0.1742246 -1.406657,0.2684827 -2.852124,0.2851436 -4.277772,0.3319257 -0.09714,2.978e-4 -2.085624,0.00617 -2.143153,0.00729 -0.724812,0.014099 -1.448792,0.092916 -2.173534,0.075589 -0.101164,-0.00242 0.199039,-0.036657 0.298558,-0.054985 C 79.961218,8.0655604 79.595164,8.0535118 79.22911,8.0414631 74.885799,7.9132897 81.228008,8.098715 76.920357,7.9784883 76.526502,7.9674958 76.131869,7.9706417 75.738888,7.9421941 74.560151,7.8568662 73.39423,7.619861 72.232764,7.4161582 71.829978,7.3349824 71.424785,7.2649487 71.024407,7.1726307 70.237368,6.9911579 69.346677,6.7238615 68.569906,6.507337 68.174479,6.397112 67.775329,6.2999127 67.3824,6.1810889 66.711943,5.9783391 66.060786,5.7148135 65.384233,5.5307734 64.689993,5.3184797 64.272382,5.1858233 63.572348,4.9916331 62.405301,4.6678933 61.223523,4.3984666 60.065888,4.0400954 58.974434,3.7258813 57.897686,3.3501244 56.800438,3.0597885 56.375722,2.9474073 55.945373,2.8575111 55.517901,2.7561186 53.858693,2.3625698 54.717805,2.5484469 53.047028,2.219322 52.664148,2.1346167 52.278416,2.0619061 51.898388,1.9652062 51.117423,1.7664858 50.352893,1.5074939 49.575104,1.2966822 48.094761,0.89545059 46.599105,0.5462023 45.087441,0.28454149 43.615256,0.05614391 43.352965,-0.0086765 41.860117,-0.14232814 c -1.650811,-0.14779377 -3.30899,-0.0969378 -4.957963,-0.27362626 -0.262721,-0.0207341 -1.493964,-0.12221614 -1.775647,-0.12790002 -1.686105,-0.0340228 -3.370015,-0.002715 -5.042744,0.22802692 -0.587197,0.0892583 -1.613861,0.23747679 -2.191852,0.35737129 -1.484953,0.30802875 -2.917609,0.80363269 -4.336587,1.33021841 -0.293555,0.1133159 -0.586848,0.2273121 -0.880664,0.3399476 -0.487834,0.1870129 -0.899752,0.3762231 -1.414361,0.4577341 -0.225109,0.035656 -0.454292,0.038653 -0.681945,0.04957 -0.578292,0.027731 -1.344293,0.02844 -1.908367,0.033791 -1.877495,0.027547 -0.893063,-0.00941 -2.979657,0.1275554 C 13.924724,2.4962522 13.059886,2.502825 11.259714,2.8551948 8.7483472,3.3467753 8.3005879,3.6103767 5.8684503,4.4763881 5.0754888,4.8813978 4.2939587,5.3096154 3.4895656,5.6914174 2.8348311,6.0021845 2.146102,6.2381336 1.4933376,6.553018 0.01902802,7.2642042 -1.4737217,8.1187571 -2.6099976,9.320475 -2.7879954,9.5087243 -2.9206255,9.7351972 -3.0759395,9.9425583 -3.316352,10.110478 -0.94161116,13.510424 -0.70119865,13.342504 Z" />
      <path
         style="opacity:0.05;fill:#ffffff;fill-opacity:1;stroke:none;stroke-width:0.05;stroke-dasharray:none;stroke-opacity:1"
         id="path11113"
         d="m 61.898013,-3.194579 c 0.648906,1.0286526 1.64019,1.7762282 2.64196,2.43822959 0.44524,0.29422859 0.896657,0.58104011 1.365996,0.83506771 0.493556,0.26713473 1.012592,0.48424159 1.518889,0.72636239 1.879844,0.80814971 3.867502,1.29354421 5.888812,1.57544571 0.694608,0.096873 1.392864,0.1657318 2.088331,0.2562321 1.477077,0.1885744 2.905188,0.6419699 4.3759,0.8607575 0.488055,0.1041946 0.98179,0.1984994 1.47959,0.2434496 0.289353,0.026128 0.579144,0.01548 0.868467,0.039524 0.622486,0.2000382 1.220862,0.4630941 1.856191,0.6271397 0.246616,0.063678 0.49678,0.1127271 0.74517,0.1690907 1.721567,0.3695145 3.470107,0.5946248 5.224292,0.7324451 0.26564,0.020009 0.532101,0.03112 0.79692,0.060028 0.536358,0.058549 1.068116,0.153902 1.603441,0.2212407 0.861788,0.1084044 1.719517,0.1926201 2.586301,0.2467777 2.011102,0.062071 4.017419,-0.1257256 6.027427,-0.096023 0.60181,0.1096924 1.21865,-0.00314 1.82178,0.071472 0.0957,0.011842 -0.37975,0.048075 -0.2837,0.056952 0.33665,0.031117 0.67613,0.012193 1.01421,0.010569 0.91875,-0.00441 1.00136,-0.02102 1.89583,-0.073881 1.05421,-0.087903 2.1087,-0.065945 3.16462,-0.059526 1.2816,0.00779 1.72083,0.00445 2.78853,2.7e-6 1.05981,-0.027062 2.11892,0.029579 3.17864,0.0026 0.24951,-0.00635 0.51124,0.050248 0.74826,-0.027969 0.1627,-0.053691 -0.34103,-0.033432 -0.51154,-0.050147 0.20423,-0.019224 0.40851,-0.038009 0.6127,-0.057671 0.18937,-0.018235 0.79884,-0.081775 1.00616,-0.092901 0.45957,-0.024663 0.92127,0.00503 1.3812,0.00448 0.67723,0.012359 1.35452,-0.01168 2.03175,-0.00554 1.14904,0.010412 -0.10631,0.060065 0.96384,0.00374 0.30379,-0.078139 -0.80126,-4.3743694 -1.10505,-4.2962304 v 0 c -0.15659,-0.00787 -0.31299,-0.02438 -0.46978,-0.023623 -0.16395,7.918e-4 -0.65375,0.0079 -0.49106,0.028264 0.0582,0.00728 1.40408,-0.023743 0.1758,-0.00531 -0.45876,-9.734e-4 -0.91972,0.028658 -1.37802,0.00186 -0.19731,-0.011538 -0.77953,-0.077372 -0.96017,-0.096066 -0.19516,-0.020195 -0.39042,-0.039254 -0.58563,-0.058881 -1.14431,-0.030785 -2.30128,-0.0934675 -3.44797,-0.0866477 -0.53328,0.003172 -1.06632,0.0265203 -1.59961,0.029865 -0.2592,0.00163 -0.51841,-9.931e-4 -0.77762,-0.00149 -0.26024,5.369e-4 -0.52055,-0.00416 -0.78073,0.00161 -0.14511,0.00322 0.58033,-0.00206 0.43541,0.00605 -1.02831,0.057608 -2.05719,-0.018662 -3.08211,-0.0926064 -2.35778,-0.19379075 -4.73345,-0.1367195 -7.090032,0.052316 -0.790687,0.0558928 -1.58313,0.1078717 -2.375369,0.1370415 -0.240179,0.00884 -0.481522,-0.0077 -0.720889,0.013922 -0.167581,0.015134 0.672927,0.011143 0.504756,0.0056 -0.229907,-0.00758 -0.459997,-0.0078 -0.689995,-0.011706 C 95.836516,1.1151504 95.378748,1.11191 94.876283,1.0678565 94.356477,1.0222825 93.806311,0.93031079 93.290003,0.8646032 93.019104,0.83012747 92.746337,0.81017554 92.476259,0.76976711 92.210941,0.73007072 91.948538,0.67286762 91.684678,0.62441787 91.093087,0.52405552 90.502487,0.41557401 89.905442,0.35050764 89.610839,0.31840155 89.314224,0.30841409 89.018951,0.28319422 88.165557,0.21030402 87.313815,0.10511152 86.45625,0.09160083 86.453356,0.0914682 85.114256,0.02994705 85.095714,0.02964538 84.79123,0.02469166 84.486384,0.07332804 84.182467,0.05409103 83.931754,0.03822166 83.688568,-0.04843303 83.434942,-0.04174741 83.204636,-0.06606536 83.242451,-0.08728198 83.018868,-0.16504985 82.690697,-0.27919626 82.354761,-0.37240707 82.034705,-0.50978438 81.854573,-0.60018125 81.679071,-0.7004641 81.494309,-0.780975 81.27953,-0.8745658 81.056927,-0.94907778 80.837593,-1.0314304 c -0.537366,-0.201763 -1.072114,-0.405006 -1.62438,-0.5642735 -0.591811,-0.1706715 -1.200739,-0.2777767 -1.791289,-0.4534302 -0.284603,-0.072156 -0.571586,-0.135506 -0.853811,-0.2164679 -0.306042,-0.087794 -0.60702,-0.1923743 -0.910206,-0.2895759 -1.64513,-0.5274294 -3.268616,-1.1123144 -4.895145,-1.6940635 -2.376675,-0.8418582 -0.516724,-0.2050018 -2.832211,-0.9412526 -0.927879,-0.2950358 -1.934049,-0.6872562 -2.886303,-0.893546 -0.14241,-0.030851 -0.289557,-0.032954 -0.434336,-0.049431 -0.207811,-0.1917603 -2.91971,2.747132 -2.711899,2.938892 z" />
      <circle
         id="path11115"
         style="fill:#ffffff;stroke:#000000"
         cx="117"
         cy="26.25"
         r="0.0007866142" />
    </g>
    <g
       id="g5504"
       transform="matrix(0.56331804,0,0,0.56331804,42.396824,0.39297338)">
      <circle
         style="opacity:1;fill:#c87137;stroke-width:0.614286"
         id="path1145"
         cx="91.899918"
         cy="3.9550042"
         r="12.368378" />
      <path
         id="circle7317"
         style="opacity:1;fill:#6b2d1d;stroke-width:0.614286;fill-opacity:1"
         d="M 79.744777,6.2538368 C 79.514623,5.4950974 79.448328,3.4576805 79.607818,2.429445 c 9.362096,-4.2824853 10.701135,-2.14437901 18.143858,-9.3736732 0.977703,0.5260279 1.876502,1.1797678 2.674074,1.938893 -6.522668,5.27779528 -6.5629,6.156556 -20.680973,11.259172 z"
         sodipodi:nodetypes="ccccc" />
      <path
         id="circle7239"
         style="opacity:1;fill:#894d26;stroke-width:0.614286"
         d="M 82.93109,12.471901 C 81.756474,11.235354 80.834898,9.7561345 80.249331,8.1172116 95.627525,2.405167 93.981239,1.5887159 101.51168,-3.8296561 c 0.83463,1.0292533 1.50728,2.1952065 1.97914,3.45905355 C 93.686426,8.7147765 93.348158,7.4370002 82.93109,12.471901 Z"
         sodipodi:nodetypes="ccccc" />
      <path
         style="opacity:1;fill:none;stroke:#000000;stroke-width:2.8;stroke-dasharray:none;stroke-opacity:1"
         d="m 80.594973,10.001981 c -3.838636,2.188959 -4.890418,6.171231 5.563306,3.272926 10.453724,-2.898305 20.535351,-14.3848271 20.535351,-14.3848271"
         id="path1316"
         sodipodi:nodetypes="czc" />
      <ellipse
         style="opacity:0.5;fill:#000000;stroke-width:0.0840008"
         id="circle5206"
         cx="75.487625"
         cy="43.325485"
         rx="2.2293823"
         ry="1.2831309"
         transform="rotate(-24.446036)" />
      <ellipse
         style="opacity:0.7;fill:#000000;stroke-width:0.0205137"
         id="ellipse5260"
         cx="79.739174"
         cy="40.14341"
         rx="0.54443288"
         ry="0.3133508"
         transform="rotate(-24.446036)" />
      <ellipse
         style="opacity:0.7;fill:#000000;stroke-width:0.0453494"
         id="ellipse5262"
         cx="75.487625"
         cy="43.325485"
         rx="1.2035757"
         ry="0.69272333"
         transform="rotate(-24.446036)" />
      <circle
         style="opacity:1;fill:#a7882d;fill-opacity:1;stroke:none;stroke-width:0.0887598;stroke-dasharray:none;stroke-opacity:1"
         id="path9267"
         cx="-67.718094"
         cy="7.0688782"
         r="0.77664828" />
      <circle
         style="opacity:1;fill:#a7882d;fill-opacity:1;stroke:none;stroke-width:0.0887598;stroke-dasharray:none;stroke-opacity:1"
         id="circle10205"
         cx="-64.893776"
         cy="8.8733044"
         r="0.77664828" />
      <circle
         style="opacity:1;fill:#a7882d;fill-opacity:1;stroke:none;stroke-width:0.0887598;stroke-dasharray:none;stroke-opacity:1"
         id="circle10207"
         cx="-34.846153"
         cy="4.2445583"
         r="0.77664828" />
      <circle
         style="opacity:1;fill:#a7882d;fill-opacity:1;stroke:none;stroke-width:0.0887598;stroke-dasharray:none;stroke-opacity:1"
         id="circle10209"
         cx="-15.468182"
         cy="9.814744"
         r="0.77664828" />
      <g
         id="g352"
         transform="translate(-28.680512)">
        <path
           id="circle19403"
           style="opacity:1;fill:#d6b968;stroke-width:0.0760798"
           d="m 0.83897144,14.526299 c -0.0182494,0.108885 -6.40743414,0.771133 -6.77508904,0.771133 -0.367655,0 -0.6656983,-0.298043 -0.6656986,-0.665698 -3e-7,-0.367655 0.2980432,-0.665699 0.6656986,-0.665699 0.3676553,0 6.79381768,0.44852 6.77508904,0.560264 z"
           sodipodi:nodetypes="sssss"
           transform="rotate(-28.369046)" />
        <circle
           style="opacity:1;fill:#a7882d;fill-opacity:1;stroke:none;stroke-width:0.0507199;stroke-dasharray:none;stroke-opacity:1"
           id="circle10211"
           cx="1.7290308"
           cy="15.695082"
           r="0.44379902" />
      </g>
      <circle
         style="opacity:1;fill:#a7882d;fill-opacity:1;stroke:none;stroke-width:0.0887598;stroke-dasharray:none;stroke-opacity:1"
         id="circle10213"
         cx="6.2590995"
         cy="15.273025"
         r="0.77664828" />
      <circle
         style="opacity:1;fill:#a7882d;fill-opacity:1;stroke:none;stroke-width:0.0507199;stroke-dasharray:none;stroke-opacity:1"
         id="circle10215"
         cx="46.330837"
         cy="14.030835"
         r="0.44379902" />
      <circle
         style="opacity:1;fill:#a7882d;fill-opacity:1;stroke:none;stroke-width:0.0349632;stroke-dasharray:none;stroke-opacity:1"
         id="circle10217"
         cx="28.551952"
         cy="19.329502"
         r="0.30592832" />
      <circle
         style="opacity:1;fill:#2da791;fill-opacity:1;stroke:none;stroke-width:0.0507199;stroke-dasharray:none;stroke-opacity:1"
         id="circle10249"
         cx="-53.299526"
         cy="3.2703416"
         r="0.44379902" />
      <circle
         style="opacity:1;fill:#2da791;fill-opacity:1;stroke:none;stroke-width:0.0507199;stroke-dasharray:none;stroke-opacity:1"
         id="circle10251"
         cx="-48.750587"
         cy="9.7054272"
         r="0.44379902" />
      <circle
         style="opacity:1;fill:#2da791;fill-opacity:1;stroke:none;stroke-width:0.0507199;stroke-dasharray:none;stroke-opacity:1"
         id="circle10253"
         cx="-28.169407"
         cy="10.75945"
         r="0.44379902" />
      <circle
         style="opacity:1;fill:#2da791;fill-opacity:1;stroke:none;stroke-width:0.0507199;stroke-dasharray:none;stroke-opacity:1"
         id="circle10255"
         cx="-16.686108"
         cy="3.2148664"
         r="0.44379902" />
      <circle
         style="opacity:1;fill:#2da791;fill-opacity:1;stroke:none;stroke-width:0.0507199;stroke-dasharray:none;stroke-opacity:1"
         id="circle10257"
         cx="-2.623349"
         cy="7.8828392"
         r="0.44379902" />
      <circle
         style="opacity:1;fill:#2da791;fill-opacity:1;stroke:none;stroke-width:0.0507199;stroke-dasharray:none;stroke-opacity:1"
         id="circle10259"
         cx="17.070232"
         cy="15.982171"
         r="0.44379902" />
      <circle
         style="opacity:1;fill:#2da791;fill-opacity:1;stroke:none;stroke-width:0.0507199;stroke-dasharray:none;stroke-opacity:1"
         id="circle10261"
         cx="28.387108"
         cy="12.320829"
         r="0.44379902" />
      <circle
         style="opacity:1;fill:#2da791;fill-opacity:1;stroke:none;stroke-width:0.0507199;stroke-dasharray:none;stroke-opacity:1"
         id="circle10263"
         cx="39.482082"
         cy="6.9952412"
         r="0.44379902" />
      <circle
         style="opacity:1;fill:#9c52d1;fill-opacity:1;stroke:none;stroke-width:0.0507199;stroke-dasharray:none;stroke-opacity:1"
         id="circle10265"
         cx="-57.537361"
         cy="13.941907"
         r="0.44379902" />
      <circle
         style="opacity:1;fill:#9c52d1;fill-opacity:1;stroke:none;stroke-width:0.0507199;stroke-dasharray:none;stroke-opacity:1"
         id="circle10267"
         cx="-41.140617"
         cy="9.9407873"
         r="0.44379902" />
      <circle
         style="opacity:1;fill:#9c52d1;fill-opacity:1;stroke:none;stroke-width:0.0507199;stroke-dasharray:none;stroke-opacity:1"
         id="circle10269"
         cx="-26.469845"
         cy="5.2335877"
         r="0.44379902" />
      <circle
         style="opacity:1;fill:#9c52d1;fill-opacity:1;stroke:none;stroke-width:0.0507199;stroke-dasharray:none;stroke-opacity:1"
         id="circle10271"
         cx="-5.6797132"
         cy="13.471187"
         r="0.44379902" />
      <circle
         style="opacity:1;fill:#9c52d1;fill-opacity:1;stroke:none;stroke-width:0.0507199;stroke-dasharray:none;stroke-opacity:1"
         id="circle10273"
         cx="11.580018"
         cy="9.9407873"
         r="0.44379902" />
      <circle
         style="opacity:1;fill:#9c52d1;fill-opacity:1;stroke:none;stroke-width:0.0507199;stroke-dasharray:none;stroke-opacity:1"
         id="circle10275"
         cx="41.000015"
         cy="19.825907"
         r="0.44379902" />
      <circle
         style="opacity:1;fill:#9c52d1;fill-opacity:1;stroke:none;stroke-width:0.0507199;stroke-dasharray:none;stroke-opacity:1"
         id="circle10277"
         cx="57.082947"
         cy="17.864574"
         r="0.44379902" />
      <circle
         style="opacity:1;fill:#9c52d1;fill-opacity:1;stroke:none;stroke-width:0.0507199;stroke-dasharray:none;stroke-opacity:1"
         id="circle10279"
         cx="66.844612"
         cy="14.199684"
         r="0.44379902" />
      <circle
         style="opacity:1;fill:#a7882d;fill-opacity:1;stroke:none;stroke-width:0.0507199;stroke-dasharray:none;stroke-opacity:1"
         id="circle10281"
         cx="48.998249"
         cy="4.3026228"
         r="0.44379902" />
      <path
         sodipodi:type="star"
         style="opacity:1;fill:#9c52d1;fill-opacity:1;stroke:none;stroke-width:0.0887598;stroke-dasharray:none;stroke-opacity:1"
         id="path10386"
         inkscape:flatsided="false"
         sodipodi:sides="6"
         sodipodi:cx="6.296875"
         sodipodi:cy="2.015625"
         sodipodi:r1="0.76626247"
         sodipodi:r2="0.48274535"
         sodipodi:arg1="0.88650154"
         sodipodi:arg2="1.4101003"
         inkscape:rounded="0.93"
         inkscape:randomized="-0.095"
         d="M 6.8515202,2.5730234 C 6.5036442,2.7798645 6.7744823,2.368202 6.3972928,2.4732548 6.0201033,2.5783076 6.4742036,2.8203647 6.0821735,2.7334914 5.6901433,2.646618 6.2830484,2.6332447 5.9924364,2.3410859 5.7018245,2.048927 5.6633709,2.464395 5.5701022,2.0923058 5.4768336,1.7202167 5.6780922,2.246528 5.7810019,1.8493622 5.8839116,1.4521963 5.550582,1.6887631 5.8770698,1.4812404 6.2035575,1.2737176 5.8906461,1.5285789 6.2657533,1.5023847 6.6408605,1.4761904 6.154008,1.1423074 6.5008266,1.3207723 6.8476452,1.4992373 6.4310456,1.3510023 6.6707595,1.6471309 6.9104734,1.9432595 7.0236376,1.4923704 7.0930937,1.8959109 7.1625498,2.2994514 6.9089643,1.7712547 6.7364543,2.1262773 6.5639444,2.4813 7.1993962,2.3661822 6.8515202,2.5730234 Z"
         transform="matrix(0.66458179,0,0,0.66458179,-70.157152,1.2105145)" />
      <path
         sodipodi:type="star"
         style="opacity:1;fill:#d1b152;fill-opacity:1;stroke:none;stroke-width:0.0887598;stroke-dasharray:none;stroke-opacity:1"
         id="path10388"
         inkscape:flatsided="false"
         sodipodi:sides="7"
         sodipodi:cx="6.296875"
         sodipodi:cy="2.015625"
         sodipodi:r1="0.76626247"
         sodipodi:r2="0.48274535"
         sodipodi:arg1="0.88650154"
         sodipodi:arg2="1.3353005"
         inkscape:rounded="0.93"
         inkscape:randomized="0.112"
         d="M 6.6984051,2.6522316 C 6.4678175,2.9193275 6.8378137,2.401535 6.4941261,2.4534014 6.1504384,2.5052678 6.5156292,2.8113494 6.1553802,2.7000764 5.7951312,2.5888034 6.3213002,2.5995763 6.0351047,2.3974602 5.7489091,2.195344 5.8386856,2.6548706 5.6864727,2.3277246 5.5342598,2.0005786 5.6922991,2.4114484 5.7473185,2.0676305 5.8023379,1.7238125 5.4215945,1.9851035 5.6048402,1.6829676 5.7880859,1.3808318 5.7123876,1.8590138 6.0113238,1.6522664 6.31026,1.4455189 5.6724497,1.359077 6.0492748,1.2898492 6.4260999,1.2206214 6.0457534,1.435191 6.3724643,1.5575115 6.6991752,1.679832 6.4663991,1.1092162 6.7362245,1.3644193 7.0060499,1.6196224 6.5703187,1.4380237 6.7205159,1.7754123 6.8707131,2.112801 7.0620182,1.6426627 7.0406352,2.0198913 7.0192522,2.3971199 6.9014045,1.9060354 6.771452,2.2275297 6.6414995,2.5490241 6.9289928,2.3851358 6.6984051,2.6522316 Z"
         transform="matrix(0.66458179,0,0,0.66458179,-45.58178,3.6514092)" />
      <path
         sodipodi:type="star"
         style="opacity:1;fill:#2da791;fill-opacity:1;stroke:none;stroke-width:0.0887598;stroke-dasharray:none;stroke-opacity:1"
         id="path10442"
         inkscape:flatsided="false"
         sodipodi:sides="5"
         sodipodi:cx="6.296875"
         sodipodi:cy="2.015625"
         sodipodi:r1="0.76626247"
         sodipodi:r2="0.38313124"
         sodipodi:arg1="0.88650154"
         sodipodi:arg2="1.5148201"
         inkscape:rounded="0"
         inkscape:randomized="0"
         d="M 6.78125,2.609375 6.31831,2.3981562 5.8818653,2.6597718 5.93969,2.1542196 5.5560099,1.8199796 6.0546875,1.71875 6.2540049,1.2505627 l 0.250375,0.4429889 0.506865,0.044884 -0.3439374,0.3750118 z"
         transform="matrix(0.66458179,0,0,0.66458179,-9.6501568,0.98399612)" />
      <ellipse
         style="opacity:1;fill:#60a72d;fill-opacity:1;stroke:none;stroke-width:0.0285299;stroke-dasharray:none;stroke-opacity:1"
         id="path11171"
         cx="34.728886"
         cy="1.7932882"
         rx="0.37825713"
         ry="0.35304001" />
      <circle
         style="opacity:1;fill:#9c52d1;fill-opacity:1;stroke:none;stroke-width:0.0507199;stroke-dasharray:none;stroke-opacity:1"
         id="circle11243"
         cx="24.093323"
         cy="1.6639614"
         r="0.44379902" />
      <path
         sodipodi:type="star"
         style="opacity:1;fill:#60a72d;fill-opacity:1;stroke:none;stroke-width:0.0887598;stroke-dasharray:none;stroke-opacity:1"
         id="path11299"
         inkscape:flatsided="false"
         sodipodi:sides="3"
         sodipodi:cx="16.117188"
         sodipodi:cy="0.46875"
         sodipodi:r1="0.14405538"
         sodipodi:r2="0.072027691"
         sodipodi:arg1="0.86217005"
         sodipodi:arg2="1.9093676"
         inkscape:rounded="0.5"
         inkscape:randomized="0.02"
         d="m 16.213792,0.57942044 c -0.04699,0.0409422 -0.05888,-0.0211425 -0.117982,-0.04286 -0.0591,-0.0217175 -0.108971,0.0213785 -0.121952,-0.0402495 -0.01298,-0.061628 0.04882,-0.0436325 0.097,-0.0829108 0.04818,-0.0392783 0.03656,-0.10254827 0.09531,-0.0798482 0.05875,0.0227001 0.01011,0.0625929 0.02267,0.12334618 0.01256,0.0607533 0.07195,0.0815802 0.02496,0.12252234 z"
         transform="matrix(4.1964589,0,0,4.1964589,-110.24803,-1.3759505)"
         inkscape:transform-center-x="-0.083138927"
         inkscape:transform-center-y="-0.062298877" />
      <path
         sodipodi:type="star"
         style="opacity:1;fill:#a72d2d;fill-opacity:1;stroke:none;stroke-width:0.0887598;stroke-dasharray:none;stroke-opacity:1"
         id="path11301"
         inkscape:flatsided="false"
         sodipodi:sides="5"
         sodipodi:cx="16.117188"
         sodipodi:cy="0.46875"
         sodipodi:r1="0.14405538"
         sodipodi:r2="0.072027691"
         sodipodi:arg1="0.86217005"
         sodipodi:arg2="1.4904886"
         inkscape:rounded="0.5"
         inkscape:randomized="0.02"
         d="m 16.213792,0.57942044 c -0.03603,0.0313943 -0.04168,-0.0407288 -0.08986,-0.0377762 -0.04818,0.002953 -0.04199,0.0731532 -0.08221,0.0476355 -0.04022,-0.0255177 0.02985,-0.052015 0.01135,-0.0957272 -0.0185,-0.0437122 -0.08874,-0.008801 -0.07744,-0.0557417 0.0113,-0.0469409 0.0582,0.007857 0.09553,-0.0223891 0.03734,-0.0302462 -0.01172,-0.0845836 0.0356,-0.0895635 0.04731,-0.00498 0.0057,0.055461 0.04567,0.081606 0.03998,0.026145 0.08234,-0.0376224 0.09985,0.006396 0.01751,0.0440186 -0.05165,0.0216505 -0.06219,0.0687779 -0.01054,0.0471273 0.05974,0.0653878 0.02371,0.0967821 z"
         transform="matrix(-1.5298736,6.0903595,-6.0903595,-1.5298736,1.1198903,-97.832363)"
         inkscape:transform-center-x="-0.0060833724"
         inkscape:transform-center-y="0.11156313" />
      <g
         id="g356"
         transform="translate(5.6083742,-6.4921938)">
        <path
           id="circle19821"
           style="opacity:1;fill:#95e3d4;stroke-width:0.0689474"
           transform="rotate(-31.658466)"
           d="m 15.656363,22.018895 c -0.0031,0.104466 -9.9589707,0.462019 -10.2921581,0.462019 -0.3331874,0 -0.6032891,-0.270102 -0.6032893,-0.603289 -4e-7,-0.333188 0.2701015,-0.60329 0.6032893,-0.60329 0.3331878,0 10.2959851,0.615159 10.2921581,0.74456 z"
           sodipodi:nodetypes="sssss" />
        <circle
           style="opacity:1;fill:#2da791;fill-opacity:1;stroke:none;stroke-width:0.0507199;stroke-dasharray:none;stroke-opacity:1"
           id="circle12893"
           cx="16.048542"
           cy="15.806625"
           r="0.44379902" />
      </g>
      <circle
         style="opacity:1;fill:#2da791;fill-opacity:1;stroke:none;stroke-width:0.0570599;stroke-dasharray:none;stroke-opacity:1"
         id="circle12954"
         cx="72.323212"
         cy="1.3922784"
         r="0.4992739" />
      <circle
         style="opacity:1;fill:#a7882d;fill-opacity:1;stroke:none;stroke-width:0.0507199;stroke-dasharray:none;stroke-opacity:1"
         id="circle12956"
         cx="61.923897"
         cy="1.0850798"
         r="0.44379902" />
      <circle
         style="opacity:1;fill:#2da791;fill-opacity:1;stroke:none;stroke-width:0.0570599;stroke-dasharray:none;stroke-opacity:1"
         id="circle12958"
         cx="70.104218"
         cy="7.4390402"
         r="0.4992739" />
      <ellipse
         style="opacity:1;fill:#60a72d;fill-opacity:1;stroke:none;stroke-width:0.0285299;stroke-dasharray:none;stroke-opacity:1"
         id="ellipse13084"
         cx="57.473587"
         cy="7.895525"
         rx="0.37825713"
         ry="0.35304001" />
      <g
         id="g498"
         transform="translate(17.651999,-1.8044264)">
        <path
           id="circle15810"
           style="opacity:1;fill:#ceaae8;stroke-width:0.0760798"
           d="m 40.262931,12.239655 c 0.259972,0.259972 -3.780605,3.4343 -4.047558,3.687098 -0.266953,0.252798 -0.688294,0.241323 -0.941092,-0.02563 -0.252798,-0.266953 -0.241323,-0.688294 0.02563,-0.941092 0.266953,-0.252798 4.703048,-2.980348 4.96302,-2.720376 z"
           sodipodi:nodetypes="sssss" />
        <circle
           style="opacity:1;fill:#9c52d1;fill-opacity:1;stroke:none;stroke-width:0.0608068;stroke-dasharray:none;stroke-opacity:1"
           id="circle15808"
           cx="35.738029"
           cy="15.482617"
           r="0.53205901" />
      </g>
      <circle
         style="opacity:1;fill:#9c52d1;fill-opacity:1;stroke-width:0.0482055"
         id="path2118"
         cx="-56.800617"
         cy="25.954941"
         r="0.69238037" />
      <circle
         style="opacity:1;fill:#2da791;fill-opacity:1;stroke-width:0.0482055"
         id="circle2897"
         cx="-31.947872"
         cy="35.940418"
         r="0.69238037" />
      <circle
         style="opacity:1;fill:#a7882d;fill-opacity:1;stroke-width:0.0482055"
         id="circle3106"
         cx="18.090469"
         cy="27.175388"
         r="0.69238037" />
      <circle
         style="opacity:1;fill:#a7882d;fill-opacity:1;stroke-width:0.0482055"
         id="circle3453"
         cx="65.355064"
         cy="37.271816"
         r="0.69238037" />
      <circle
         style="opacity:1;fill:#a72d2d;fill-opacity:1;stroke-width:0.0482055"
         id="circle3455"
         cx="-12.753565"
         cy="25.400192"
         r="0.69238037" />
      <circle
         style="opacity:1;fill:#5fa72d;fill-opacity:0.85882354;stroke-width:0.0482055"
         id="circle3595"
         cx="31.404438"
         cy="37.604664"
         r="0.69238037" />
    </g>
    <g
       id="g5832"
       transform="matrix(0.41525468,-0.25710274,0.25710274,0.41525468,44.735744,21.0012)">
      <g
         id="g7079"
         transform="matrix(1.2529363,0,0,1.2529363,-22.209207,-3.1005115)">
        <path
           id="path6838"
           style="opacity:1;fill:#ffffff;stroke-width:0.409497"
           transform="rotate(31.763503)"
           d="m 71.175561,-34.547327 1.805953,-2.015201 3.128941,-0.634661 0.510125,0.156745 -0.400843,2.214731 -4.159849,0.670053 z"
           sodipodi:nodetypes="ccccccc" />
        <path
           id="rect6835"
           style="opacity:1;fill:#b3b3b3;stroke-width:0.409497"
           transform="rotate(31.763503)"
           d="m 72.007353,-35.043203 1.078135,-1.383359 2.991034,-0.668829 0.396213,0.146238 -0.500936,1.56358 -3.847927,0.406119 z"
           sodipodi:nodetypes="ccccccc" />
        <path
           id="path6679"
           style="opacity:1;fill:#d8c733;stroke:#000000;stroke-width:0.0982908;stroke-dasharray:none;stroke-opacity:1"
           inkscape:transform-center-y="2.1477476e-06"
           transform="matrix(0.96569447,0.24953123,-0.32870675,1.0384165,6.713125,-14.230481)"
           d="M 78.988262,2.8885921 78.401543,2.1922074 78.6875,1.125 79.560176,0.75417735 80.535957,1.6202926 80.25,2.6875 Z"
           sodipodi:nodetypes="ccccccc" />
        <path
           id="path6945"
           style="opacity:1;fill:#000000;stroke-width:0.0901438"
           d="m 82.532257,7.6305007 -0.07137,-0.1837793 0.132506,-0.2191402 0.203877,-0.035361 0.138987,0.2415489 -0.132506,0.2191402 z"
           sodipodi:nodetypes="ccccccc" />
        <path
           style="opacity:1;fill:#000000;fill-opacity:1;stroke:none;stroke-width:0.409497;stroke-dasharray:none;stroke-opacity:1"
           d="M 83.301267,6.4008271 81.225514,6.5172602"
           id="path6947" />
        <path
           style="opacity:1;fill:#000000;fill-opacity:1;stroke:#000000;stroke-width:0.102374;stroke-dasharray:none;stroke-opacity:1"
           d="M 83.323135,8.5685417 81.225514,6.5172602"
           id="path6949"
           sodipodi:nodetypes="cc" />
        <path
           style="opacity:1;fill:#000000;fill-opacity:1;stroke:#000000;stroke-width:0.102374;stroke-dasharray:none;stroke-opacity:1"
           d="M 83.292846,6.4144273 81.225514,6.5172602"
           id="path6951"
           sodipodi:nodetypes="cc" />
        <path
           style="opacity:1;fill:#000000;fill-opacity:1;stroke:#000000;stroke-width:0.102374;stroke-dasharray:none;stroke-opacity:1"
           d="M 81.721866,7.6147521 81.225514,6.5172602"
           id="path6953"
           sodipodi:nodetypes="cc" />
      </g>
    </g>
  </g>
</svg>
