<?xml version="1.0" encoding="UTF-8" standalone="no"?>
<svg
   clip-rule="evenodd"
   fill-rule="evenodd"
   stroke-linejoin="round"
   stroke-miterlimit="2"
   viewBox="0 0 24 24"
   version="1.1"
   id="svg2762"
   sodipodi:docname="star-lined.svg"
   inkscape:version="1.2.2 (b0a8486541, 2022-12-01)"
   xmlns:inkscape="http://www.inkscape.org/namespaces/inkscape"
   xmlns:sodipodi="http://sodipodi.sourceforge.net/DTD/sodipodi-0.dtd"
   xmlns="http://www.w3.org/2000/svg"
   xmlns:svg="http://www.w3.org/2000/svg">
  <defs
     id="defs2766" />
  <sodipodi:namedview
     id="namedview2764"
     pagecolor="#ffffff"
     bordercolor="#000000"
     borderopacity="0.25"
     inkscape:showpageshadow="2"
     inkscape:pageopacity="0.0"
     inkscape:pagecheckerboard="0"
     inkscape:deskcolor="#d1d1d1"
     showgrid="false"
     inkscape:zoom="9.8333333"
     inkscape:cx="3.1525424"
     inkscape:cy="12.610169"
     inkscape:window-width="1920"
     inkscape:window-height="1131"
     inkscape:window-x="0"
     inkscape:window-y="0"
     inkscape:window-maximized="1"
     inkscape:current-layer="svg2762" />
  <path
     d="M 11.197892,1.2614475 C 11.346956,0.95503729 11.659281,0.76101695 12,0.76101695 c 0.341902,0 0.653044,0.19402034 0.802108,0.50043055 1.152292,2.3637356 3.135085,6.4357966 3.135085,6.4357966 0,0 4.508607,0.6199186 7.124332,0.9807491 0.47677,0.065068 0.768983,0.4684882 0.768983,0.883739 0,0.2247797 -0.08518,0.4531088 -0.273284,0.6341148 -1.904712,1.819533 -5.184129,4.958167 -5.184129,4.958167 0,0 0.800925,4.456552 1.264681,7.041518 0.09819,0.54657 -0.325339,1.043451 -0.877823,1.043451 -0.144333,0 -0.288665,-0.03431 -0.419984,-0.105291 C 16.011725,21.893854 12,19.760814 12,19.760814 c 0,0 -4.0117254,2.13304 -6.3399695,3.372878 -0.1313186,0.07098 -0.2768339,0.105291 -0.4211661,0.105291 -0.5501186,0 -0.9760169,-0.498064 -0.8766407,-1.043451 0.464939,-2.584966 1.2658644,-7.041518 1.2658644,-7.041518 0,0 -3.2806,-3.138634 -5.18412878,-4.958167 C 0.25467119,10.014841 0.16949153,9.7865119 0.16949153,9.5629153 c 0,-0.4164339 0.29457966,-0.8210373 0.7701661,-0.8849221 C 3.5553831,8.3171627 8.0628068,7.6972441 8.0628068,7.6972441 c 0,0 1.9839762,-4.072061 3.1350852,-6.4357966 z M 12,3.6665898 9.2068169,9.3357695 3.0005322,10.186383 7.5529119,14.496237 6.4313797,20.713169 12,17.749627 l 5.56862,2.963542 -1.125081,-6.194454 4.555929,-4.332332 -6.286732,-0.8943864 z"
     fill-rule="nonzero"
     id="path2760"
     style="stroke-width:1.18305;fill:#ffffff" />
</svg>
