<?xml version="1.0" encoding="UTF-8" standalone="no"?>
<svg
   clip-rule="evenodd"
   fill-rule="evenodd"
   stroke-linejoin="round"
   stroke-miterlimit="2"
   viewBox="0 0 30.308319 8.7968836"
   version="1.1"
   id="svg3617"
   sodipodi:docname="viewer-bg.svg"
   inkscape:version="1.2.2 (b0a8486541, 2022-12-01)"
   width="30.308319"
   height="8.7968836"
   xmlns:inkscape="http://www.inkscape.org/namespaces/inkscape"
   xmlns:sodipodi="http://sodipodi.sourceforge.net/DTD/sodipodi-0.dtd"
   xmlns="http://www.w3.org/2000/svg"
   xmlns:svg="http://www.w3.org/2000/svg">
  <defs
     id="defs3621" />
  <sodipodi:namedview
     id="namedview3619"
     pagecolor="#1f2336"
     bordercolor="#000000"
     borderopacity="0.25"
     inkscape:showpageshadow="2"
     inkscape:pageopacity="0.10588235"
     inkscape:pagecheckerboard="0"
     inkscape:deskcolor="#d1d1d1"
     showgrid="false"
     inkscape:zoom="32"
     inkscape:cx="14.234375"
     inkscape:cy="5.65625"
     inkscape:window-width="1920"
     inkscape:window-height="1131"
     inkscape:window-x="0"
     inkscape:window-y="0"
     inkscape:window-maximized="1"
     inkscape:current-layer="g5504" />
  <g
     id="g5116"
     style="opacity:1"
     transform="translate(-3.8125001,0.30018266)">
    <g
       inkscape:groupmode="layer"
       id="layer1"
       inkscape:label="Layer 1" />
    <g
       id="g5504"
       transform="matrix(0.56331804,0,0,0.56331804,42.396824,0.39297338)">
      <circle
         style="opacity:0.6;fill:#a7882d;fill-opacity:1;stroke:none;stroke-width:0.0887598;stroke-dasharray:none;stroke-opacity:1"
         id="path9267"
         cx="-50.853729"
         cy="7.0688782"
         r="0.77664828" />
      <circle
         style="opacity:0.6;fill:#a7882d;fill-opacity:1;stroke:none;stroke-width:0.0887598;stroke-dasharray:none;stroke-opacity:1"
         id="circle10205"
         cx="-43.036674"
         cy="7.264533"
         r="0.77664828" />
      <circle
         style="opacity:0.6;fill:#a7882d;fill-opacity:1;stroke:none;stroke-width:0.0887598;stroke-dasharray:none;stroke-opacity:1"
         id="circle10207"
         cx="-31.684086"
         cy="11.345343"
         r="0.77664828" />
      <circle
         style="opacity:0.6;fill:#a7882d;fill-opacity:1;stroke:none;stroke-width:0.0887598;stroke-dasharray:none;stroke-opacity:1"
         id="circle10209"
         cx="-15.468182"
         cy="9.814744"
         r="0.77664828" />
      <circle
         style="opacity:0.6;fill:#2da791;fill-opacity:1;stroke:none;stroke-width:0.0507199;stroke-dasharray:none;stroke-opacity:1"
         id="circle10249"
         cx="-53.299526"
         cy="3.2703416"
         r="0.44379902" />
      <circle
         style="opacity:0.6;fill:#2da791;fill-opacity:1;stroke:none;stroke-width:0.0507199;stroke-dasharray:none;stroke-opacity:1"
         id="circle10251"
         cx="-63.728806"
         cy="8.2630806"
         r="0.44379902" />
      <circle
         style="opacity:0.6;fill:#2da791;fill-opacity:1;stroke:none;stroke-width:0.0507199;stroke-dasharray:none;stroke-opacity:1"
         id="circle10253"
         cx="-33.439522"
         cy="1.4396704"
         r="0.44379902" />
      <circle
         style="opacity:0.6;fill:#2da791;fill-opacity:1;stroke:none;stroke-width:0.0507199;stroke-dasharray:none;stroke-opacity:1"
         id="circle10255"
         cx="-24.452591"
         cy="9.3171034"
         r="0.44379902" />
      <circle
         style="opacity:0.6;fill:#9c52d1;fill-opacity:1;stroke:none;stroke-width:0.0507199;stroke-dasharray:none;stroke-opacity:1"
         id="circle10265"
         cx="-57.537361"
         cy="13.941907"
         r="0.44379902" />
      <circle
         style="opacity:0.6;fill:#9c52d1;fill-opacity:1;stroke:none;stroke-width:0.0507199;stroke-dasharray:none;stroke-opacity:1"
         id="circle10267"
         cx="-37.2019"
         cy="4.5597243"
         r="0.44379902" />
      <circle
         style="opacity:0.6;fill:#9c52d1;fill-opacity:1;stroke:none;stroke-width:0.0507199;stroke-dasharray:none;stroke-opacity:1"
         id="circle10269"
         cx="-26.469845"
         cy="5.2335877"
         r="0.44379902" />
      <path
         sodipodi:type="star"
         style="opacity:0.6;fill:#9c52d1;fill-opacity:1;stroke:none;stroke-width:0.0887598;stroke-dasharray:none;stroke-opacity:1"
         id="path10386"
         inkscape:flatsided="false"
         sodipodi:sides="6"
         sodipodi:cx="6.296875"
         sodipodi:cy="2.015625"
         sodipodi:r1="0.76626247"
         sodipodi:r2="0.48274535"
         sodipodi:arg1="0.88650154"
         sodipodi:arg2="1.4101003"
         inkscape:rounded="0.93"
         inkscape:randomized="-0.095"
         d="M 6.8515202,2.5730234 C 6.5036442,2.7798645 6.7744823,2.368202 6.3972928,2.4732548 6.0201033,2.5783076 6.4742036,2.8203647 6.0821735,2.7334914 5.6901433,2.646618 6.2830484,2.6332447 5.9924364,2.3410859 5.7018245,2.048927 5.6633709,2.464395 5.5701022,2.0923058 5.4768336,1.7202167 5.6780922,2.246528 5.7810019,1.8493622 5.8839116,1.4521963 5.550582,1.6887631 5.8770698,1.4812404 6.2035575,1.2737176 5.8906461,1.5285789 6.2657533,1.5023847 6.6408605,1.4761904 6.154008,1.1423074 6.5008266,1.3207723 6.8476452,1.4992373 6.4310456,1.3510023 6.6707595,1.6471309 6.9104734,1.9432595 7.0236376,1.4923704 7.0930937,1.8959109 7.1625498,2.2994514 6.9089643,1.7712547 6.7364543,2.1262773 6.5639444,2.4813 7.1993962,2.3661822 6.8515202,2.5730234 Z"
         transform="matrix(0.66458179,0,0,0.66458179,-64.11039,5.1492309)" />
      <path
         sodipodi:type="star"
         style="opacity:0.6;fill:#d1b152;fill-opacity:1;stroke:none;stroke-width:0.0887598;stroke-dasharray:none;stroke-opacity:1"
         id="path10388"
         inkscape:flatsided="false"
         sodipodi:sides="7"
         sodipodi:cx="6.296875"
         sodipodi:cy="2.015625"
         sodipodi:r1="0.76626247"
         sodipodi:r2="0.48274535"
         sodipodi:arg1="0.88650154"
         sodipodi:arg2="1.3353005"
         inkscape:rounded="0.93"
         inkscape:randomized="0.112"
         d="M 6.6984051,2.6522316 C 6.4678175,2.9193275 6.8378137,2.401535 6.4941261,2.4534014 6.1504384,2.5052678 6.5156292,2.8113494 6.1553802,2.7000764 5.7951312,2.5888034 6.3213002,2.5995763 6.0351047,2.3974602 5.7489091,2.195344 5.8386856,2.6548706 5.6864727,2.3277246 5.5342598,2.0005786 5.6922991,2.4114484 5.7473185,2.0676305 5.8023379,1.7238125 5.4215945,1.9851035 5.6048402,1.6829676 5.7880859,1.3808318 5.7123876,1.8590138 6.0113238,1.6522664 6.31026,1.4455189 5.6724497,1.359077 6.0492748,1.2898492 6.4260999,1.2206214 6.0457534,1.435191 6.3724643,1.5575115 6.6991752,1.679832 6.4663991,1.1092162 6.7362245,1.3644193 7.0060499,1.6196224 6.5703187,1.4380237 6.7205159,1.7754123 6.8707131,2.112801 7.0620182,1.6426627 7.0406352,2.0198913 7.0192522,2.3971199 6.9014045,1.9060354 6.771452,2.2275297 6.6414995,2.5490241 6.9289928,2.3851358 6.6984051,2.6522316 Z"
         transform="matrix(0.66458179,0,0,0.66458179,-49.964295,10.03102)" />
      <path
         sodipodi:type="star"
         style="opacity:0.6;fill:#60a72d;fill-opacity:1;stroke:none;stroke-width:0.0887598;stroke-dasharray:none;stroke-opacity:1"
         id="path11299"
         inkscape:flatsided="false"
         sodipodi:sides="3"
         sodipodi:cx="16.117188"
         sodipodi:cy="0.46875"
         sodipodi:r1="0.14405538"
         sodipodi:r2="0.072027691"
         sodipodi:arg1="0.86217005"
         sodipodi:arg2="1.9093676"
         inkscape:rounded="0.5"
         inkscape:randomized="0.02"
         d="m 16.213792,0.57942044 c -0.04699,0.0409422 -0.05888,-0.0211425 -0.117982,-0.04286 -0.0591,-0.0217175 -0.108971,0.0213785 -0.121952,-0.0402495 -0.01298,-0.061628 0.04882,-0.0436325 0.097,-0.0829108 0.04818,-0.0392783 0.03656,-0.10254827 0.09531,-0.0798482 0.05875,0.0227001 0.01011,0.0625929 0.02267,0.12334618 0.01256,0.0607533 0.07195,0.0815802 0.02496,0.12252234 z"
         transform="matrix(4.1964589,0,0,4.1964589,-110.24803,-1.3759505)"
         inkscape:transform-center-x="-0.083138927"
         inkscape:transform-center-y="-0.062298877" />
      <path
         sodipodi:type="star"
         style="opacity:0.6;fill:#a72d2d;fill-opacity:1;stroke:none;stroke-width:0.0887598;stroke-dasharray:none;stroke-opacity:1"
         id="path11301"
         inkscape:flatsided="false"
         sodipodi:sides="5"
         sodipodi:cx="16.117188"
         sodipodi:cy="0.46875"
         sodipodi:r1="0.14405538"
         sodipodi:r2="0.072027691"
         sodipodi:arg1="0.86217005"
         sodipodi:arg2="1.4904886"
         inkscape:rounded="0.5"
         inkscape:randomized="0.02"
         d="m 16.213792,0.57942044 c -0.03603,0.0313943 -0.04168,-0.0407288 -0.08986,-0.0377762 -0.04818,0.002953 -0.04199,0.0731532 -0.08221,0.0476355 -0.04022,-0.0255177 0.02985,-0.052015 0.01135,-0.0957272 -0.0185,-0.0437122 -0.08874,-0.008801 -0.07744,-0.0557417 0.0113,-0.0469409 0.0582,0.007857 0.09553,-0.0223891 0.03734,-0.0302462 -0.01172,-0.0845836 0.0356,-0.0895635 0.04731,-0.00498 0.0057,0.055461 0.04567,0.081606 0.03998,0.026145 0.08234,-0.0376224 0.09985,0.006396 0.01751,0.0440186 -0.05165,0.0216505 -0.06219,0.0687779 -0.01054,0.0471273 0.05974,0.0653878 0.02371,0.0967821 z"
         transform="matrix(-1.5298736,6.0903595,-6.0903595,-1.5298736,-38.711072,-87.347611)"
         inkscape:transform-center-x="-0.0060833724"
         inkscape:transform-center-y="0.11156313" />
    </g>
  </g>
</svg>
