<?xml version="1.0" encoding="UTF-8" standalone="no"?>
<svg
   clip-rule="evenodd"
   fill-rule="evenodd"
   stroke-linejoin="round"
   stroke-miterlimit="2"
   viewBox="0 0 100 60"
   version="1.1"
   id="svg3617"
   sodipodi:docname="info-bg2.svg"
   inkscape:version="1.2.2 (b0a8486541, 2022-12-01)"
   width="100"
   height="60"
   xml:space="preserve"
   xmlns:inkscape="http://www.inkscape.org/namespaces/inkscape"
   xmlns:sodipodi="http://sodipodi.sourceforge.net/DTD/sodipodi-0.dtd"
   xmlns="http://www.w3.org/2000/svg"
   xmlns:svg="http://www.w3.org/2000/svg"><defs
     id="defs3621"><linearGradient
       id="linearGradient1548"><stop
         style="stop-color:#ffffff;stop-opacity:1;"
         offset="0"
         id="stop1552" /><stop
         style="stop-color:#ffffff;stop-opacity:0;"
         offset="1"
         id="stop1554" /></linearGradient><linearGradient
       id="linearGradient1548-1"><stop
         style="stop-color:#ffffff;stop-opacity:1;"
         offset="0"
         id="stop1544" /><stop
         style="stop-color:#ffffff;stop-opacity:0;"
         offset="1"
         id="stop1546" /></linearGradient><filter
       style="color-interpolation-filters:sRGB;"
       inkscape:label="Blur"
       id="filter10860"
       x="-0.12146416"
       y="-0.26445959"
       width="1.2429283"
       height="1.5289192"><feGaussianBlur
         stdDeviation="0.5 0.21"
         result="fbSourceGraphic"
         id="feGaussianBlur10858" /><feColorMatrix
         result="fbSourceGraphicAlpha"
         in="fbSourceGraphic"
         values="0 0 0 -1 0 0 0 0 -1 0 0 0 0 -1 0 0 0 0 1 0"
         id="feColorMatrix10862" /><feGaussianBlur
         id="feGaussianBlur10864"
         stdDeviation="0.5 0.21"
         result="blur"
         in="fbSourceGraphic" /></filter></defs><sodipodi:namedview
     id="namedview3619"
     pagecolor="#1f2336"
     bordercolor="#000000"
     borderopacity="0.25"
     inkscape:showpageshadow="2"
     inkscape:pageopacity="0.10588235"
     inkscape:pagecheckerboard="0"
     inkscape:deskcolor="#d1d1d1"
     showgrid="false"
     inkscape:zoom="32"
     inkscape:cx="45.796875"
     inkscape:cy="31.0625"
     inkscape:window-width="1920"
     inkscape:window-height="1131"
     inkscape:window-x="0"
     inkscape:window-y="0"
     inkscape:window-maximized="1"
     inkscape:current-layer="g6907" /><g
     id="g15482"
     transform="translate(8.5633708,0.26585111)"><g
       id="g20801"
       transform="translate(-5.9454957,2.7684207)"><g
         id="g6907"
         transform="matrix(1.9485579,0,0,1.9485579,-4.7826721,-34.158685)"
         style="fill:#962c2a;fill-opacity:1"><path
           id="path10740"
           style="fill:#521b99;fill-opacity:0.13915858;stroke-width:0.0352251"
           d="m 18.078546,22.462281 c 0.581596,-1.158992 2.554246,-0.468037 3.80445,-0.812283 1.645821,-0.453179 3.342494,-2.446477 4.849787,-1.645125 1.363351,0.724826 1.985281,3.127744 1.219772,4.468674 -1.362566,2.386786 -5.462901,3.337023 -7.953147,2.174265 -1.390931,-0.64946 -2.60936,-2.813504 -1.920862,-4.185531 z"
           sodipodi:nodetypes="aaaaaa" /><path
           id="path10716"
           style="fill:#521b99;fill-opacity:0.31391585;stroke-width:0.0483868"
           d="m 32.537757,38.438849 c 0.04866,1.728844 -2.382286,2.608863 -3.921564,3.397465 -1.075152,0.550821 -2.322232,0.936041 -3.526185,0.836784 -2.317081,-0.191027 -4.237063,-1.930661 -6.430984,-2.700119 -1.776172,-0.622944 -4.387789,0.0216 -5.431285,-1.544912 -1.138091,-1.708519 -0.502984,-4.472301 0.727545,-6.115495 1.489968,-1.989637 4.392069,-3.243845 6.857744,-2.929038 4.898387,0.625406 11.5858,4.119119 11.724729,9.055315 z"
           sodipodi:nodetypes="aaaaaaaa" /><path
           id="path10651"
           style="fill:#521b99;fill-opacity:0.226537;stroke-width:0.0483868"
           d="m 39.208827,21.289342 c 0.979297,1.487894 -1.692067,3.303038 -1.646679,5.083709 0.04521,1.773796 1.974008,3.201273 1.89618,4.973937 -0.04325,0.985137 -0.306601,2.698598 -1.291977,2.661216 -4.766167,-0.180811 -8.119648,-9.494266 -5.255968,-13.3085 1.266046,-1.686291 5.139142,-1.171746 6.298444,0.589638 z"
           sodipodi:nodetypes="aaaaaa" /><path
           id="rect5819"
           style="fill:#390c7a;fill-opacity:1;stroke-width:0.0419693"
           d="m 20.32039,26.056818 c 0,0 0.181245,-4.083903 3.09328,-4.306479 2.208404,-0.01542 3.843671,1.913788 5.32751,1.876692 1.717938,-0.004 2.412747,-1.254205 4.487653,-1.051293 1.569597,0.365217 2.09768,1.211131 2.393654,2.164172 0.185481,0.853208 -1.015291,2.326109 -0.298517,4.241129 0.512291,1.368703 3.031168,2.773485 2.858141,4.75465 -0.139703,2.593499 -1.67203,2.670281 -4.770601,3.578406 -1.119815,0.328194 -1.423397,1.399339 -2.42772,3.225074 -0.315153,0.572908 -1.300919,0.9469 -3.058512,0.725802 -2.023933,-0.254603 -3.019312,-3.134642 -4.784406,-3.022051 -1.817064,0.115906 -2.499648,0.639479 -4.582542,0.704755 -2.899569,-0.476987 -2.320093,-2.270614 -1.90297,-5.125957 0.218667,-1.496844 -1.743395,-1.655955 -1.580957,-4.206544 0.686276,-2.819296 4.615354,-1.072924 5.245987,-3.558356 z"
           sodipodi:nodetypes="cccccscsssscscc" /><path
           id="path10508"
           style="opacity:1;fill:#ffffff;fill-opacity:0.05;stroke-width:0.0419693"
           d="m 37.339222,31.526775 c -0.347041,0.295642 -0.669537,0.619504 -0.985297,0.947589 -0.135746,0.141044 -0.277529,0.276812 -0.404938,0.425431 -0.116783,0.136226 -0.217424,0.285224 -0.326245,0.427891 -0.356445,0.465219 -0.701437,0.944705 -1.093498,1.381217 -0.454755,0.506311 -0.960542,0.965871 -1.491059,1.391053 -0.539572,0.416397 -0.624822,0.500049 -1.209897,0.872995 -0.223865,0.142698 -0.449795,0.282666 -0.682821,0.409857 -0.243996,0.133177 -0.497397,0.247671 -0.746759,0.37051 -0.785232,0.386816 -0.575556,0.284102 -1.376299,0.654131 -0.486754,0.219433 -1.020301,0.463753 -1.511551,0.669706 -0.622138,0.260827 -1.252131,0.502175 -1.88698,0.729545 0.667022,0.676875 1.376696,1.341901 2.301755,1.45827 1.757591,0.221098 2.743198,-0.152538 3.05835,-0.725446 1.004323,-1.825732 1.307357,-2.897379 2.427172,-3.225572 3.098567,-0.908124 4.631029,-0.984553 4.770732,-3.578049 0.07189,-0.82315 -0.322152,-1.546227 -0.842665,-2.209128 z" /><path
           id="path10583"
           style="opacity:1;fill:#ffffff;fill-opacity:0.05;stroke-width:0.0419693"
           d="m 23.78526,21.766448 c -0.139745,0.123983 -0.280242,0.246553 -0.42871,0.359854 -0.110341,0.09502 -0.226297,0.184236 -0.331164,0.28526 -0.09209,0.08872 -0.174954,0.186453 -0.259029,0.282801 -0.32326,0.37045 -0.599948,0.778106 -0.83201,1.211536 -0.169095,0.322485 -0.336022,0.647118 -0.490189,0.977099 -0.156386,0.334732 -0.153305,0.367499 -0.320507,0.703314 -0.0612,0.122907 -0.128458,0.242576 -0.192633,0.363953 -0.213632,0.383724 -0.197993,0.348741 -0.3992,0.737742 -0.06472,0.125127 -0.123605,0.252986 -0.191813,0.376248 -0.217623,0.393275 -0.466149,0.770401 -0.714791,1.14432 -0.08816,0.125698 -0.173538,0.253582 -0.264767,0.377068 -0.473512,0.640952 -1.000466,1.248092 -1.584505,1.790254 -0.12874,0.106722 -0.260721,0.209842 -0.386086,0.320509 -0.110615,0.09765 -0.214624,0.202205 -0.321327,0.304113 -0.391065,0.373488 -0.774445,0.756449 -1.196782,1.095137 0.447673,0.554387 0.894141,0.969943 0.783646,1.726317 -0.28915,1.979331 -0.655486,3.447488 0.112301,4.321529 0.03563,-0.01816 0.0699,-0.03881 0.105743,-0.05656 0.740269,-0.366546 1.521538,-0.643463 2.296836,-0.923818 0.242093,-0.08995 0.48467,-0.179232 0.726267,-0.270505 0.713506,-0.269556 1.418389,-0.555457 2.109123,-0.879552 0.604135,-0.283465 0.744823,-0.365215 1.334493,-0.672985 0.804746,-0.496535 1.640776,-0.939066 2.456681,-1.416464 0.18527,-0.108405 0.372384,-0.213666 0.554126,-0.327886 0.170169,-0.106947 0.333935,-0.223298 0.500845,-0.335263 0.570202,-0.40144 1.106648,-0.849733 1.620573,-1.320559 0.111616,-0.102254 0.228925,-0.199743 0.332804,-0.309851 0.106462,-0.112846 0.19834,-0.238947 0.297556,-0.358215 0.437067,-0.510195 0.883666,-1.011728 1.285311,-1.550897 0.136027,-0.182605 0.450047,-0.628506 0.581996,-0.814795 0.125163,-0.192269 0.407662,-0.623916 0.528715,-0.821354 0.08292,-0.135248 0.158693,-0.274729 0.241816,-0.409856 0.08041,-0.130727 0.167751,-0.256815 0.249193,-0.386905 0.241056,-0.385051 0.219742,-0.36015 0.437726,-0.755776 0.365069,-0.687651 0.776198,-1.35151 1.211537,-1.996821 0.236327,-0.360803 0.515508,-0.689176 0.823812,-0.990214 0.07752,-0.0757 0.160169,-0.145805 0.240176,-0.218864 0.01322,-0.01303 0.02613,-0.02632 0.03935,-0.03935 -0.354389,-0.306243 -0.836448,-0.554046 -1.51319,-0.711512 -2.074905,-0.202911 -2.769995,1.047686 -4.487932,1.051693 -1.399355,0.03498 -2.933578,-1.678422 -4.955987,-1.860749 z" /><circle
           style="opacity:1;fill:#ccb2fa;fill-opacity:1;stroke-width:0.05132"
           id="path10840"
           cx="26.306004"
           cy="31.662155"
           r="0.17641251" /><circle
           style="opacity:1;fill:#ccb2fa;fill-opacity:1;stroke-width:0.05132"
           id="circle10842"
           cx="28.033882"
           cy="26.04841"
           r="0.17641251" /><circle
           style="opacity:1;fill:#ccb2fa;fill-opacity:1;stroke-width:0.05132"
           id="circle10844"
           cx="29.44805"
           cy="24.302685"
           r="0.17641251" /><circle
           style="opacity:1;fill:#ccb2fa;fill-opacity:1;stroke-width:0.05132"
           id="circle10846"
           cx="44.67754"
           cy="20.107698"
           r="0.17641251" /><circle
           style="opacity:1;fill:#ccb2fa;fill-opacity:1;stroke-width:0.05132"
           id="circle10848"
           cx="29.753431"
           cy="29.394112"
           r="0.17641251" /><circle
           style="opacity:1;fill:#ccb2fa;fill-opacity:1;stroke-width:0.05132"
           id="circle10850"
           cx="24.287441"
           cy="23.383793"
           r="0.17641251" /><circle
           style="opacity:1;fill:#ccb2fa;fill-opacity:1;stroke-width:0.05132"
           id="circle10852"
           cx="22.314243"
           cy="25.992044"
           r="0.17641251" /><circle
           style="opacity:1;fill:#ccb2fa;fill-opacity:1;stroke-width:0.05132"
           id="circle10854"
           cx="19.932796"
           cy="29.25803"
           r="0.17641251" /><circle
           style="opacity:1;fill:#ccb2fa;fill-opacity:1;stroke-width:0.05132"
           id="circle10856"
           cx="22.473007"
           cy="29.394112"
           r="0.17641251" /><circle
           style="opacity:1;fill:#ccb2fa;fill-opacity:1;stroke-width:0.05132"
           id="circle10858"
           cx="19.275063"
           cy="32.274529"
           r="0.17641251" /><circle
           style="opacity:1;fill:#ece2fd;fill-opacity:1;stroke-width:0.05132"
           id="circle10862"
           cx="19.524548"
           cy="35.336391"
           r="0.17641251" /><circle
           style="opacity:1;fill:#ccb2fa;fill-opacity:1;stroke-width:0.05132"
           id="circle10864"
           cx="26.532806"
           cy="38.829182"
           r="0.17641251" /><circle
           style="opacity:1;fill:#ccb2fa;fill-opacity:1;stroke-width:0.05132"
           id="circle10866"
           cx="29.231781"
           cy="40.462173"
           r="0.17641251" /><circle
           style="opacity:1;fill:#ccb2fa;fill-opacity:1;stroke-width:0.05132"
           id="circle10868"
           cx="30.547247"
           cy="38.058044"
           r="0.17641251" /><circle
           style="opacity:1;fill:#ccb2fa;fill-opacity:1;stroke-width:0.05132"
           id="circle10870"
           cx="35.990555"
           cy="36.039486"
           r="0.17641251" /><g
           id="g11785"
           transform="translate(-1.9278384,-3.1525828)"><path
             id="circle11211"
             style="opacity:1;fill:#ccbbea;fill-opacity:1;stroke-width:0.107305"
             d="m 39.571154,32.295164 c -0.173236,0.107192 -4.055467,2.315283 -4.162661,2.142049 -0.107193,-0.173236 3.601239,-2.662188 3.774472,-2.769382 0.173237,-0.107193 0.400567,-0.05366 0.507762,0.119571 0.107193,0.173237 0.05366,0.400565 -0.119573,0.507762 z"
             sodipodi:nodetypes="sssss" /><circle
             style="opacity:1;fill:#ece2fd;fill-opacity:1;stroke-width:0.0793127"
             id="circle10872"
             cx="39.397285"
             cy="31.967625"
             r="0.27263752" /></g><circle
           style="opacity:1;fill:#ccb2fa;fill-opacity:1;stroke-width:0.05132"
           id="circle10874"
           cx="33.654469"
           cy="36.107525"
           r="0.17641251" /><circle
           style="opacity:1;fill:#ccb2fa;fill-opacity:1;stroke-width:0.05132"
           id="circle10876"
           cx="25.498232"
           cy="26.977757"
           r="0.17641251" /><path
           id="path11405"
           style="fill:#8d75a7;fill-opacity:1;stroke-width:0.0419693"
           d="M 18.756235 32.235077 A 4.6721732 4.6721732 0 0 0 16.453851 32.854525 C 16.618402 33.130026 16.712591 33.429764 16.655322 33.821787 C 16.2382 36.677127 15.659207 38.470787 18.558773 38.947773 C 20.641665 38.882497 21.323425 38.359031 23.140487 38.243126 C 23.171619 38.24114 23.202039 38.242278 23.232702 38.242123 A 4.6721732 4.6721732 0 0 0 23.428159 36.907001 A 4.6721732 4.6721732 0 0 0 18.756235 32.235077 z " /><path
           id="path11589"
           style="opacity:1;fill:#7e679c;fill-opacity:1;stroke-width:0.05132"
           d="M 20.109399 32.438552 C 20.031206 32.50629 19.948503 32.568888 19.866832 32.632005 C 19.762089 32.709075 19.688812 32.765545 19.578157 32.835481 C 19.473495 32.901631 19.337931 32.978111 19.226334 33.030938 C 19.163374 33.060738 19.09792 33.08572 19.033884 33.11313 C 18.970554 33.14024 18.907832 33.16735 18.844441 33.19432 C 18.658562 33.26293 18.625146 33.277828 18.434482 33.337655 C 18.103948 33.441372 17.767246 33.522568 17.436148 33.624325 C 17.338178 33.656085 17.239842 33.686028 17.142461 33.719548 C 16.974648 33.777302 16.807095 33.839314 16.642292 33.906986 C 16.537491 34.613997 16.425433 35.255928 16.361635 35.826475 C 16.405782 35.795507 16.449825 35.764742 16.493945 35.736264 C 16.579685 35.680924 16.669854 35.632059 16.757561 35.579898 C 17.016914 35.435016 17.284488 35.301059 17.564448 35.20001 C 17.829625 35.1043 18.105833 35.044504 18.380356 34.983503 C 18.732128 34.908393 19.083121 34.824381 19.424798 34.710866 C 19.649789 34.636116 19.700974 34.611289 19.918954 34.521423 C 19.995294 34.487663 20.072626 34.457114 20.147488 34.420186 C 20.225878 34.381526 20.301741 34.337544 20.378027 34.294893 C 20.655872 34.139533 20.921978 33.968299 21.183912 33.787707 C 21.379286 33.645944 21.565172 33.488082 21.727182 33.308587 A 4.6721732 4.6721732 0 0 0 20.109399 32.438552 z " /><path
           id="path11595"
           style="opacity:1;fill:#766094;fill-opacity:1;stroke-width:0.05132"
           d="M 22.981114 34.921358 C 22.946399 35.008308 22.901925 35.091 22.843793 35.166932 C 22.774603 35.255592 22.703178 35.342027 22.622275 35.420525 C 22.519915 35.519845 22.406124 35.607132 22.293506 35.694165 C 22.188763 35.771235 22.115486 35.827705 22.004831 35.897641 C 21.900169 35.963791 21.764605 36.039269 21.653008 36.092096 C 21.590049 36.121896 21.525597 36.14788 21.461561 36.17529 C 21.398231 36.2024 21.334506 36.22951 21.271115 36.25648 C 21.085237 36.32509 21.051821 36.338986 20.861157 36.398813 C 20.530622 36.50253 20.19392 36.583726 19.862822 36.685483 C 19.764852 36.717243 19.666517 36.747186 19.569136 36.780706 C 19.243126 36.892904 18.91859 37.020371 18.610895 37.176632 C 18.511035 37.227342 18.414473 37.284483 18.317208 37.340014 C 18.218268 37.396494 18.120772 37.455752 18.022519 37.513419 C 17.631889 37.753084 17.246957 38.002349 16.849777 38.231097 C 17.195643 38.571594 17.737608 38.812689 18.558773 38.947773 C 18.611259 38.946128 18.662387 38.943972 18.713134 38.941759 C 18.781965 38.891115 18.851398 38.843105 18.920619 38.798424 C 19.006359 38.743084 19.096529 38.694219 19.184236 38.642058 C 19.443588 38.497177 19.711163 38.362217 19.991122 38.261168 C 20.256299 38.165458 20.532508 38.106665 20.80703 38.045664 C 21.158802 37.970554 21.509796 37.886541 21.851473 37.773026 C 22.076463 37.698276 22.127648 37.672447 22.345628 37.582581 C 22.421968 37.548821 22.500303 37.518272 22.575165 37.481344 C 22.653555 37.442684 22.728416 37.398702 22.804702 37.356051 C 23.01729 37.23718 23.22389 37.109703 23.426155 36.975161 A 4.6721732 4.6721732 0 0 0 23.428159 36.907001 A 4.6721732 4.6721732 0 0 0 22.981114 34.921358 z " /><circle
           style="opacity:1;fill:#ccb2fa;fill-opacity:1;stroke-width:0.05132"
           id="circle11939"
           cx="9.8440876"
           cy="23.186899"
           r="0.17641251" /><circle
           style="opacity:1;fill:#ccb2fa;fill-opacity:1;stroke-width:0.05132"
           id="circle11941"
           cx="41.149288"
           cy="28.89625"
           r="0.17641251" /><circle
           style="opacity:1;fill:#ccb2fa;fill-opacity:1;stroke-width:0.05132"
           id="circle11943"
           cx="45.703938"
           cy="36.145199"
           r="0.17641251" /><circle
           style="opacity:1;fill:#ccb2fa;fill-opacity:1;stroke-width:0.05132"
           id="circle11945"
           cx="11.576135"
           cy="41.854549"
           r="0.17641251" /><circle
           style="opacity:1;fill:#ccb2fa;fill-opacity:1;stroke-width:0.05132"
           id="circle11947"
           cx="4.840384"
           cy="36.401798"
           r="0.17641251" /><circle
           style="opacity:1;fill:#ccb2fa;fill-opacity:1;stroke-width:0.05132"
           id="circle11949"
           cx="7.9195843"
           cy="29.537748"
           r="0.17641251" /><circle
           style="opacity:1;fill:#ccb2fa;fill-opacity:1;stroke-width:0.05132"
           id="circle11951"
           cx="38.647438"
           cy="42.624352"
           r="0.17641251" /><circle
           style="opacity:1;fill:#ccb2fa;fill-opacity:1;stroke-width:0.05132"
           id="circle12006"
           cx="32.780983"
           cy="24.861635"
           r="0.17641251" /><circle
           style="opacity:1;fill:#ccb2fa;fill-opacity:1;stroke-width:0.0279927"
           id="circle12008"
           cx="34.227894"
           cy="27.902624"
           r="0.096225001" /><circle
           style="opacity:1;fill:#ccb2fa;fill-opacity:1;stroke-width:0.0373236"
           id="circle12010"
           cx="29.449354"
           cy="35.414932"
           r="0.12830001" /><circle
           style="opacity:1;fill:#ccb2fa;fill-opacity:1;stroke-width:0.0373236"
           id="circle12012"
           cx="32.81723"
           cy="32.528183"
           r="0.12830001" /><circle
           style="opacity:1;fill:#ccb2fa;fill-opacity:1;stroke-width:0.0373236"
           id="circle12014"
           cx="25.504129"
           cy="35.799831"
           r="0.12830001" /></g></g></g></svg>
